<svg xmlns="http://www.w3.org/2000/svg" viewBox="0 0 512 512" fill="#38b2ac">
  <path d="M226.5 92.9c14.3 42.9-.3 86.2-32.6 96.8s-70.1-15.6-84.4-58.5s.3-86.2 32.6-96.8s70.1 15.6 84.4 58.5zM100.4 198.6c18.9 32.4 14.3 70.1-10.2 84.1s-59.7-1.2-78.5-33.6s-14.3-70.1 10.2-84.1s59.7 1.2 78.5 33.6zM69.2 401.2C121.6 259.9 214.7 224 256 224s134.4 35.9 186.8 177.2c3.6 9.7 5.2 20.1 5.2 30.5v1.6c0 25.8-20.9 46.7-46.7 46.7c-11.5 0-22.9-4.2-31.8-11.9l-49.4-42.3c-11.6-9.9-27.6-13.6-42.4-9.8l-7.2 1.8c-9.5 2.4-19.5 2.4-29 0l-7.2-1.8c-14.8-3.8-30.8-.1-42.4 9.8l-49.4 42.3c-8.9 7.7-20.3 11.9-31.8 11.9c-25.8 0-46.7-20.9-46.7-46.7v-1.6c0-10.4 1.6-20.8 5.2-30.5zM421.8 282.7c-24.5-14-29.1-51.7-10.2-84.1s54-47.3 78.5-33.6s29.1 51.7 10.2 84.1s-54 47.3-78.5 33.6zM318.1 189.7c-32.3-10.6-46.9-53.9-32.6-96.8s52.1-69.1 84.4-58.5s46.9 53.9 32.6 96.8s-52.1 69.1-84.4 58.5z"/>
</svg>